<?xml version="1.0" encoding="UTF-8" standalone="no"?><!-- Generator: Gravit.io --><svg xmlns="http://www.w3.org/2000/svg" xmlns:xlink="http://www.w3.org/1999/xlink" style="isolation:isolate" viewBox="0 0 100 100" width="100pt" height="100pt"><defs><clipPath id="_clipPath_lsFgszzVZ3Ysh8V3Tr9oABC4HKgh1D53"><rect width="100" height="100"/></clipPath></defs><g clip-path="url(#_clipPath_lsFgszzVZ3Ysh8V3Tr9oABC4HKgh1D53)"><mask id="_mask_8dcOjq3TmXDAhDIlu6pbyce8JCTSe8Dl"><rect x="37.455" y="87.636" width="8.364" height="8.364" fill="white" stroke="none"/></mask><rect x="37.455" y="87.636" width="8.364" height="8.364" transform="matrix(1,0,0,1,0,0)" fill="none"/><rect x="37.455" y="87.636" width="8.364" height="8.364" transform="matrix(1,0,0,1,0,0)" fill="none" mask="url(#_mask_8dcOjq3TmXDAhDIlu6pbyce8JCTSe8Dl)" vector-effect="non-scaling-stroke" stroke-width="4" stroke="rgb(0,115,255)" stroke-linejoin="miter" stroke-linecap="square" stroke-miterlimit="2"/><mask id="_mask_93IBiX18N8pheWU2HTvjxtoxyAECGP78"><rect x="45.818" y="87.636" width="8.364" height="8.364" fill="white" stroke="none"/></mask><rect x="45.818" y="87.636" width="8.364" height="8.364" transform="matrix(1,0,0,1,0,0)" fill="none"/><rect x="45.818" y="87.636" width="8.364" height="8.364" transform="matrix(1,0,0,1,0,0)" fill="none" mask="url(#_mask_93IBiX18N8pheWU2HTvjxtoxyAECGP78)" vector-effect="non-scaling-stroke" stroke-width="2" stroke="rgb(0,0,0)" stroke-linejoin="miter" stroke-linecap="square" stroke-miterlimit="2"/><mask id="_mask_iFH6ImbO2crrXZlgJkNAcFa1CS70lnDN"><rect x="54.182" y="87.636" width="8.364" height="8.364" fill="white" stroke="none"/></mask><rect x="54.182" y="87.636" width="8.364" height="8.364" transform="matrix(1,0,0,1,0,0)" fill="none"/><rect x="54.182" y="87.636" width="8.364" height="8.364" transform="matrix(1,0,0,1,0,0)" fill="none" mask="url(#_mask_iFH6ImbO2crrXZlgJkNAcFa1CS70lnDN)" vector-effect="non-scaling-stroke" stroke-width="2" stroke="rgb(0,0,0)" stroke-linejoin="miter" stroke-linecap="square" stroke-miterlimit="2"/><mask id="_mask_COA35CdwfcXmmkuXQem3UH5Ssqugzc40"><rect x="37.455" y="79.273" width="8.364" height="8.364" fill="white" stroke="none"/></mask><rect x="37.455" y="79.273" width="8.364" height="8.364" transform="matrix(1,0,0,1,0,0)" fill="none"/><rect x="37.455" y="79.273" width="8.364" height="8.364" transform="matrix(1,0,0,1,0,0)" fill="none" mask="url(#_mask_COA35CdwfcXmmkuXQem3UH5Ssqugzc40)" vector-effect="non-scaling-stroke" stroke-width="2" stroke="rgb(0,0,0)" stroke-linejoin="miter" stroke-linecap="square" stroke-miterlimit="2"/><mask id="_mask_nn5idkfNUmZn1Lf3wxXKcEeR2A3Thce4"><rect x="54.182" y="79.273" width="8.364" height="8.364" fill="white" stroke="none"/></mask><rect x="54.182" y="79.273" width="8.364" height="8.364" transform="matrix(1,0,0,1,0,0)" fill="none"/><rect x="54.182" y="79.273" width="8.364" height="8.364" transform="matrix(1,0,0,1,0,0)" fill="none" mask="url(#_mask_nn5idkfNUmZn1Lf3wxXKcEeR2A3Thce4)" vector-effect="non-scaling-stroke" stroke-width="2" stroke="rgb(0,0,0)" stroke-linejoin="miter" stroke-linecap="square" stroke-miterlimit="2"/><mask id="_mask_r8s7eRgCflwOSITPlEPX551N24yqz4Uf"><rect x="37.455" y="70.909" width="8.364" height="8.364" fill="white" stroke="none"/></mask><rect x="37.455" y="70.909" width="8.364" height="8.364" transform="matrix(1,0,0,1,0,0)" fill="none"/><rect x="37.455" y="70.909" width="8.364" height="8.364" transform="matrix(1,0,0,1,0,0)" fill="none" mask="url(#_mask_r8s7eRgCflwOSITPlEPX551N24yqz4Uf)" vector-effect="non-scaling-stroke" stroke-width="2" stroke="rgb(0,0,0)" stroke-linejoin="miter" stroke-linecap="square" stroke-miterlimit="2"/><mask id="_mask_TiDNK95n14zOkWJa0xtAP7Mznul7Oiuk"><rect x="54.182" y="70.909" width="8.364" height="8.364" fill="white" stroke="none"/></mask><rect x="54.182" y="70.909" width="8.364" height="8.364" transform="matrix(1,0,0,1,0,0)" fill="none"/><rect x="54.182" y="70.909" width="8.364" height="8.364" transform="matrix(1,0,0,1,0,0)" fill="none" mask="url(#_mask_TiDNK95n14zOkWJa0xtAP7Mznul7Oiuk)" vector-effect="non-scaling-stroke" stroke-width="2" stroke="rgb(0,0,0)" stroke-linejoin="miter" stroke-linecap="square" stroke-miterlimit="2"/><mask id="_mask_3naHdMdIQVe85DA6bBjGCwmNhSFtr0qU"><rect x="37.455" y="62.545" width="8.364" height="8.364" fill="white" stroke="none"/></mask><rect x="37.455" y="62.545" width="8.364" height="8.364" transform="matrix(1,0,0,1,0,0)" fill="none"/><rect x="37.455" y="62.545" width="8.364" height="8.364" transform="matrix(1,0,0,1,0,0)" fill="none" mask="url(#_mask_3naHdMdIQVe85DA6bBjGCwmNhSFtr0qU)" vector-effect="non-scaling-stroke" stroke-width="2" stroke="rgb(0,0,0)" stroke-linejoin="miter" stroke-linecap="square" stroke-miterlimit="2"/><mask id="_mask_P51tPWli8ZMG4UejbBwvdYSNMbdGNX6i"><rect x="54.182" y="62.545" width="8.364" height="8.364" fill="white" stroke="none"/></mask><rect x="54.182" y="62.545" width="8.364" height="8.364" transform="matrix(1,0,0,1,0,0)" fill="none"/><rect x="54.182" y="62.545" width="8.364" height="8.364" transform="matrix(1,0,0,1,0,0)" fill="none" mask="url(#_mask_P51tPWli8ZMG4UejbBwvdYSNMbdGNX6i)" vector-effect="non-scaling-stroke" stroke-width="2" stroke="rgb(0,0,0)" stroke-linejoin="miter" stroke-linecap="square" stroke-miterlimit="2"/><mask id="_mask_2Tp6tFy3eCdTmI4chBJxGaTe3x4U1vYq"><rect x="37.455" y="54.182" width="8.364" height="8.364" fill="white" stroke="none"/></mask><rect x="37.455" y="54.182" width="8.364" height="8.364" transform="matrix(1,0,0,1,0,0)" fill="none"/><rect x="37.455" y="54.182" width="8.364" height="8.364" transform="matrix(1,0,0,1,0,0)" fill="none" mask="url(#_mask_2Tp6tFy3eCdTmI4chBJxGaTe3x4U1vYq)" vector-effect="non-scaling-stroke" stroke-width="2" stroke="rgb(0,0,0)" stroke-linejoin="miter" stroke-linecap="square" stroke-miterlimit="2"/><mask id="_mask_ermObsFbWRK9VxOzUEFSgPLFz5BnvQGP"><rect x="45.8" y="79.273" width="8.364" height="8.364" fill="white" stroke="none"/></mask><rect x="45.8" y="79.273" width="8.364" height="8.364" transform="matrix(1,0,0,1,0,0)" fill="none"/><rect x="45.8" y="79.273" width="8.364" height="8.364" transform="matrix(1,0,0,1,0,0)" fill="none" mask="url(#_mask_ermObsFbWRK9VxOzUEFSgPLFz5BnvQGP)" vector-effect="non-scaling-stroke" stroke-width="4" stroke="rgb(255,0,0)" stroke-linejoin="miter" stroke-linecap="square" stroke-miterlimit="2"/><mask id="_mask_KAUNudI34Md3bGIawH82CzCHJGvzKbaW"><rect x="45.8" y="70.909" width="8.364" height="8.364" fill="white" stroke="none"/></mask><rect x="45.8" y="70.909" width="8.364" height="8.364" transform="matrix(1,0,0,1,0,0)" fill="none"/><rect x="45.8" y="70.909" width="8.364" height="8.364" transform="matrix(1,0,0,1,0,0)" fill="none" mask="url(#_mask_KAUNudI34Md3bGIawH82CzCHJGvzKbaW)" vector-effect="non-scaling-stroke" stroke-width="4" stroke="rgb(255,0,0)" stroke-linejoin="miter" stroke-linecap="square" stroke-miterlimit="2"/><mask id="_mask_JL5gCfFedN1xpJfRVP8pjg6a5FhwG6xq"><rect x="45.8" y="62.545" width="8.364" height="8.364" fill="white" stroke="none"/></mask><rect x="45.8" y="62.545" width="8.364" height="8.364" transform="matrix(1,0,0,1,0,0)" fill="none"/><rect x="45.8" y="62.545" width="8.364" height="8.364" transform="matrix(1,0,0,1,0,0)" fill="none" mask="url(#_mask_JL5gCfFedN1xpJfRVP8pjg6a5FhwG6xq)" vector-effect="non-scaling-stroke" stroke-width="4" stroke="rgb(255,0,0)" stroke-linejoin="miter" stroke-linecap="square" stroke-miterlimit="2"/><mask id="_mask_KOlAXpQaU4dMVLSSf861wpX05HU16MaI"><rect x="45.8" y="54.182" width="8.364" height="8.364" fill="white" stroke="none"/></mask><rect x="45.8" y="54.182" width="8.364" height="8.364" transform="matrix(1,0,0,1,0,0)" fill="none"/><rect x="45.8" y="54.182" width="8.364" height="8.364" transform="matrix(1,0,0,1,0,0)" fill="none" mask="url(#_mask_KOlAXpQaU4dMVLSSf861wpX05HU16MaI)" vector-effect="non-scaling-stroke" stroke-width="4" stroke="rgb(255,0,0)" stroke-linejoin="miter" stroke-linecap="square" stroke-miterlimit="2"/><mask id="_mask_Wu7AKiA11LGpSbjEk5O891eb3jsJeR9B"><rect x="54.182" y="54.182" width="8.364" height="8.364" fill="white" stroke="none"/></mask><rect x="54.182" y="54.182" width="8.364" height="8.364" transform="matrix(1,0,0,1,0,0)" fill="none"/><rect x="54.182" y="54.182" width="8.364" height="8.364" transform="matrix(1,0,0,1,0,0)" fill="none" mask="url(#_mask_Wu7AKiA11LGpSbjEk5O891eb3jsJeR9B)" vector-effect="non-scaling-stroke" stroke-width="2" stroke="rgb(0,0,0)" stroke-linejoin="miter" stroke-linecap="square" stroke-miterlimit="2"/><mask id="_mask_Kml6C14NGFwOwp9nYgKjPr2BsePhst3X"><rect x="62.545" y="54.182" width="8.364" height="8.364" fill="white" stroke="none"/></mask><rect x="62.545" y="54.182" width="8.364" height="8.364" transform="matrix(1,0,0,1,0,0)" fill="none"/><rect x="62.545" y="54.182" width="8.364" height="8.364" transform="matrix(1,0,0,1,0,0)" fill="none" mask="url(#_mask_Kml6C14NGFwOwp9nYgKjPr2BsePhst3X)" vector-effect="non-scaling-stroke" stroke-width="2" stroke="rgb(0,0,0)" stroke-linejoin="miter" stroke-linecap="square" stroke-miterlimit="2"/><mask id="_mask_rvBXO2mjtdK2QzUc3G647euradx3hZ0A"><rect x="70.909" y="54.182" width="8.364" height="8.364" fill="white" stroke="none"/></mask><rect x="70.909" y="54.182" width="8.364" height="8.364" transform="matrix(1,0,0,1,0,0)" fill="none"/><rect x="70.909" y="54.182" width="8.364" height="8.364" transform="matrix(1,0,0,1,0,0)" fill="none" mask="url(#_mask_rvBXO2mjtdK2QzUc3G647euradx3hZ0A)" vector-effect="non-scaling-stroke" stroke-width="2" stroke="rgb(0,0,0)" stroke-linejoin="miter" stroke-linecap="square" stroke-miterlimit="2"/><mask id="_mask_uLY9xq0jISSBvTi3PN08YyHJBGTwKmA3"><rect x="79.273" y="54.182" width="8.364" height="8.364" fill="white" stroke="none"/></mask><rect x="79.273" y="54.182" width="8.364" height="8.364" transform="matrix(1,0,0,1,0,0)" fill="none"/><rect x="79.273" y="54.182" width="8.364" height="8.364" transform="matrix(1,0,0,1,0,0)" fill="none" mask="url(#_mask_uLY9xq0jISSBvTi3PN08YyHJBGTwKmA3)" vector-effect="non-scaling-stroke" stroke-width="2" stroke="rgb(0,0,0)" stroke-linejoin="miter" stroke-linecap="square" stroke-miterlimit="2"/><mask id="_mask_iNxWsFZerGbTy5KzCzXpp4l1yaVN1rUS"><rect x="87.636" y="54.182" width="8.364" height="8.364" fill="white" stroke="none"/></mask><rect x="87.636" y="54.182" width="8.364" height="8.364" transform="matrix(1,0,0,1,0,0)" fill="none"/><rect x="87.636" y="54.182" width="8.364" height="8.364" transform="matrix(1,0,0,1,0,0)" fill="none" mask="url(#_mask_iNxWsFZerGbTy5KzCzXpp4l1yaVN1rUS)" vector-effect="non-scaling-stroke" stroke-width="2" stroke="rgb(0,0,0)" stroke-linejoin="miter" stroke-linecap="square" stroke-miterlimit="2"/><mask id="_mask_6QFx5xXbbLDzhmH7VdIck4FzZ5KnkEuf"><rect x="87.636" y="45.818" width="8.364" height="8.364" fill="white" stroke="none"/></mask><rect x="87.636" y="45.818" width="8.364" height="8.364" transform="matrix(1,0,0,1,0,0)" fill="none"/><rect x="87.636" y="45.818" width="8.364" height="8.364" transform="matrix(1,0,0,1,0,0)" fill="none" mask="url(#_mask_6QFx5xXbbLDzhmH7VdIck4FzZ5KnkEuf)" vector-effect="non-scaling-stroke" stroke-width="2" stroke="rgb(0,0,0)" stroke-linejoin="miter" stroke-linecap="square" stroke-miterlimit="2"/><mask id="_mask_004WsaQMHityFkZJ4vOUqL46wNUe0yVy"><rect x="87.636" y="37.455" width="8.364" height="8.364" fill="white" stroke="none"/></mask><rect x="87.636" y="37.455" width="8.364" height="8.364" transform="matrix(1,0,0,1,0,0)" fill="none"/><rect x="87.636" y="37.455" width="8.364" height="8.364" transform="matrix(1,0,0,1,0,0)" fill="none" mask="url(#_mask_004WsaQMHityFkZJ4vOUqL46wNUe0yVy)" vector-effect="non-scaling-stroke" stroke-width="2" stroke="rgb(0,0,0)" stroke-linejoin="miter" stroke-linecap="square" stroke-miterlimit="2"/><mask id="_mask_anquUB559pFy2iO4PJ4GoVhIUoZxQpHj"><rect x="79.273" y="37.455" width="8.364" height="8.364" fill="white" stroke="none"/></mask><rect x="79.273" y="37.455" width="8.364" height="8.364" transform="matrix(1,0,0,1,0,0)" fill="none"/><rect x="79.273" y="37.455" width="8.364" height="8.364" transform="matrix(1,0,0,1,0,0)" fill="none" mask="url(#_mask_anquUB559pFy2iO4PJ4GoVhIUoZxQpHj)" vector-effect="non-scaling-stroke" stroke-width="2" stroke="rgb(0,0,0)" stroke-linejoin="miter" stroke-linecap="square" stroke-miterlimit="2"/><mask id="_mask_CqtRHAJAxH9M5zlsClpiPLUczBM51od6"><rect x="70.909" y="37.455" width="8.364" height="8.364" fill="white" stroke="none"/></mask><rect x="70.909" y="37.455" width="8.364" height="8.364" transform="matrix(1,0,0,1,0,0)" fill="none"/><rect x="70.909" y="37.455" width="8.364" height="8.364" transform="matrix(1,0,0,1,0,0)" fill="none" mask="url(#_mask_CqtRHAJAxH9M5zlsClpiPLUczBM51od6)" vector-effect="non-scaling-stroke" stroke-width="2" stroke="rgb(0,0,0)" stroke-linejoin="miter" stroke-linecap="square" stroke-miterlimit="2"/><mask id="_mask_5vTJxH0CMEHoMqqMfVt3lbxdvK4vsEna"><rect x="62.545" y="37.455" width="8.364" height="8.364" fill="white" stroke="none"/></mask><rect x="62.545" y="37.455" width="8.364" height="8.364" transform="matrix(1,0,0,1,0,0)" fill="none"/><rect x="62.545" y="37.455" width="8.364" height="8.364" transform="matrix(1,0,0,1,0,0)" fill="none" mask="url(#_mask_5vTJxH0CMEHoMqqMfVt3lbxdvK4vsEna)" vector-effect="non-scaling-stroke" stroke-width="2" stroke="rgb(0,0,0)" stroke-linejoin="miter" stroke-linecap="square" stroke-miterlimit="2"/><mask id="_mask_YFlgpPE3OzAiL89Ng7gE5rqEqdxfToYa"><rect x="54.182" y="37.455" width="8.364" height="8.364" fill="white" stroke="none"/></mask><rect x="54.182" y="37.455" width="8.364" height="8.364" transform="matrix(1,0,0,1,0,0)" fill="none"/><rect x="54.182" y="37.455" width="8.364" height="8.364" transform="matrix(1,0,0,1,0,0)" fill="none" mask="url(#_mask_YFlgpPE3OzAiL89Ng7gE5rqEqdxfToYa)" vector-effect="non-scaling-stroke" stroke-width="2" stroke="rgb(0,0,0)" stroke-linejoin="miter" stroke-linecap="square" stroke-miterlimit="2"/><mask id="_mask_F9wJlwb9s1y39IMjZ1SpRMQAeVAwPOUc"><rect x="54.182" y="29.091" width="8.364" height="8.364" fill="white" stroke="none"/></mask><rect x="54.182" y="29.091" width="8.364" height="8.364" transform="matrix(1,0,0,1,0,0)" fill="none"/><rect x="54.182" y="29.091" width="8.364" height="8.364" transform="matrix(1,0,0,1,0,0)" fill="none" mask="url(#_mask_F9wJlwb9s1y39IMjZ1SpRMQAeVAwPOUc)" vector-effect="non-scaling-stroke" stroke-width="2" stroke="rgb(0,0,0)" stroke-linejoin="miter" stroke-linecap="square" stroke-miterlimit="2"/><mask id="_mask_SB5oAwvUo8sOgK8kszeZKwf4LlCVtStK"><rect x="54.182" y="20.727" width="8.364" height="8.364" fill="white" stroke="none"/></mask><rect x="54.182" y="20.727" width="8.364" height="8.364" transform="matrix(1,0,0,1,0,0)" fill="none"/><rect x="54.182" y="20.727" width="8.364" height="8.364" transform="matrix(1,0,0,1,0,0)" fill="none" mask="url(#_mask_SB5oAwvUo8sOgK8kszeZKwf4LlCVtStK)" vector-effect="non-scaling-stroke" stroke-width="2" stroke="rgb(0,0,0)" stroke-linejoin="miter" stroke-linecap="square" stroke-miterlimit="2"/><mask id="_mask_lpEQkXOAevv3PNrnjWZJrBJTA0YUHmJM"><rect x="54.182" y="12.364" width="8.364" height="8.364" fill="white" stroke="none"/></mask><rect x="54.182" y="12.364" width="8.364" height="8.364" transform="matrix(1,0,0,1,0,0)" fill="none"/><rect x="54.182" y="12.364" width="8.364" height="8.364" transform="matrix(1,0,0,1,0,0)" fill="none" mask="url(#_mask_lpEQkXOAevv3PNrnjWZJrBJTA0YUHmJM)" vector-effect="non-scaling-stroke" stroke-width="2" stroke="rgb(0,0,0)" stroke-linejoin="miter" stroke-linecap="square" stroke-miterlimit="2"/><mask id="_mask_S8BNfhJpr436tYKRzbibL3ZXHIaOxkQi"><rect x="45.8" y="37.455" width="8.364" height="8.364" fill="white" stroke="none"/></mask><rect x="45.8" y="37.455" width="8.364" height="8.364" transform="matrix(1,0,0,1,0,0)" fill="none"/><rect x="45.8" y="37.455" width="8.364" height="8.364" transform="matrix(1,0,0,1,0,0)" fill="none" mask="url(#_mask_S8BNfhJpr436tYKRzbibL3ZXHIaOxkQi)" vector-effect="non-scaling-stroke" stroke-width="4" stroke="rgb(255,0,0)" stroke-linejoin="miter" stroke-linecap="square" stroke-miterlimit="2"/><mask id="_mask_Rp1VVVohZnDgQKmtr72LWeiZXQnpHR2r"><rect x="45.8" y="29.091" width="8.364" height="8.364" fill="white" stroke="none"/></mask><rect x="45.8" y="29.091" width="8.364" height="8.364" transform="matrix(1,0,0,1,0,0)" fill="none"/><rect x="45.8" y="29.091" width="8.364" height="8.364" transform="matrix(1,0,0,1,0,0)" fill="none" mask="url(#_mask_Rp1VVVohZnDgQKmtr72LWeiZXQnpHR2r)" vector-effect="non-scaling-stroke" stroke-width="4" stroke="rgb(255,0,0)" stroke-linejoin="miter" stroke-linecap="square" stroke-miterlimit="2"/><mask id="_mask_0Kw4SOeEUVX4o3DjYa8iWVvvAy6Q9oyv"><rect x="45.8" y="20.727" width="8.364" height="8.364" fill="white" stroke="none"/></mask><rect x="45.8" y="20.727" width="8.364" height="8.364" transform="matrix(1,0,0,1,0,0)" fill="none"/><rect x="45.8" y="20.727" width="8.364" height="8.364" transform="matrix(1,0,0,1,0,0)" fill="none" mask="url(#_mask_0Kw4SOeEUVX4o3DjYa8iWVvvAy6Q9oyv)" vector-effect="non-scaling-stroke" stroke-width="4" stroke="rgb(255,0,0)" stroke-linejoin="miter" stroke-linecap="square" stroke-miterlimit="2"/><mask id="_mask_8lqrRE2zIj5wtI6q95vFzHmnIYqBmzc1"><rect x="45.8" y="12.364" width="8.364" height="8.364" fill="white" stroke="none"/></mask><rect x="45.8" y="12.364" width="8.364" height="8.364" transform="matrix(1,0,0,1,0,0)" fill="none"/><rect x="45.8" y="12.364" width="8.364" height="8.364" transform="matrix(1,0,0,1,0,0)" fill="none" mask="url(#_mask_8lqrRE2zIj5wtI6q95vFzHmnIYqBmzc1)" vector-effect="non-scaling-stroke" stroke-width="4" stroke="rgb(255,0,0)" stroke-linejoin="miter" stroke-linecap="square" stroke-miterlimit="2"/><mask id="_mask_pKuwbs8BkMMQLxR3PRJORtXQnexTiT6e"><rect x="54.182" y="4" width="8.364" height="8.364" fill="white" stroke="none"/></mask><rect x="54.182" y="4" width="8.364" height="8.364" transform="matrix(1,0,0,1,0,0)" fill="none"/><rect x="54.182" y="4" width="8.364" height="8.364" transform="matrix(1,0,0,1,0,0)" fill="none" mask="url(#_mask_pKuwbs8BkMMQLxR3PRJORtXQnexTiT6e)" vector-effect="non-scaling-stroke" stroke-width="4" stroke="rgb(0,115,255)" stroke-linejoin="miter" stroke-linecap="square" stroke-miterlimit="2"/><mask id="_mask_xi7mBW3ANjc66zBkYkSLgKcDFW3K6Vnv"><rect x="45.818" y="4" width="8.364" height="8.364" fill="white" stroke="none"/></mask><rect x="45.818" y="4" width="8.364" height="8.364" transform="matrix(1,0,0,1,0,0)" fill="none"/><rect x="45.818" y="4" width="8.364" height="8.364" transform="matrix(1,0,0,1,0,0)" fill="none" mask="url(#_mask_xi7mBW3ANjc66zBkYkSLgKcDFW3K6Vnv)" vector-effect="non-scaling-stroke" stroke-width="2" stroke="rgb(0,0,0)" stroke-linejoin="miter" stroke-linecap="square" stroke-miterlimit="2"/><mask id="_mask_RTIvFzkqV09yHBLyr51AqJMjwqAyrNov"><rect x="37.455" y="4" width="8.364" height="8.364" fill="white" stroke="none"/></mask><rect x="37.455" y="4" width="8.364" height="8.364" transform="matrix(1,0,0,1,0,0)" fill="none"/><rect x="37.455" y="4" width="8.364" height="8.364" transform="matrix(1,0,0,1,0,0)" fill="none" mask="url(#_mask_RTIvFzkqV09yHBLyr51AqJMjwqAyrNov)" vector-effect="non-scaling-stroke" stroke-width="2" stroke="rgb(0,0,0)" stroke-linejoin="miter" stroke-linecap="square" stroke-miterlimit="2"/><mask id="_mask_1nxuRIv9oAuOt5dljLGGcECtuLqOOfre"><rect x="37.455" y="12.364" width="8.364" height="8.364" fill="white" stroke="none"/></mask><rect x="37.455" y="12.364" width="8.364" height="8.364" transform="matrix(1,0,0,1,0,0)" fill="none"/><rect x="37.455" y="12.364" width="8.364" height="8.364" transform="matrix(1,0,0,1,0,0)" fill="none" mask="url(#_mask_1nxuRIv9oAuOt5dljLGGcECtuLqOOfre)" vector-effect="non-scaling-stroke" stroke-width="2" stroke="rgb(0,0,0)" stroke-linejoin="miter" stroke-linecap="square" stroke-miterlimit="2"/><mask id="_mask_dnuMinsonTVvmiww3DhsEeyoUf4FjHlE"><rect x="37.455" y="20.727" width="8.364" height="8.364" fill="white" stroke="none"/></mask><rect x="37.455" y="20.727" width="8.364" height="8.364" transform="matrix(1,0,0,1,0,0)" fill="none"/><rect x="37.455" y="20.727" width="8.364" height="8.364" transform="matrix(1,0,0,1,0,0)" fill="none" mask="url(#_mask_dnuMinsonTVvmiww3DhsEeyoUf4FjHlE)" vector-effect="non-scaling-stroke" stroke-width="2" stroke="rgb(0,0,0)" stroke-linejoin="miter" stroke-linecap="square" stroke-miterlimit="2"/><mask id="_mask_ylgdL82Uq3QafQJ4RSp0rfDLa6GK7bvJ"><rect x="37.455" y="29.091" width="8.364" height="8.364" fill="white" stroke="none"/></mask><rect x="37.455" y="29.091" width="8.364" height="8.364" transform="matrix(1,0,0,1,0,0)" fill="none"/><rect x="37.455" y="29.091" width="8.364" height="8.364" transform="matrix(1,0,0,1,0,0)" fill="none" mask="url(#_mask_ylgdL82Uq3QafQJ4RSp0rfDLa6GK7bvJ)" vector-effect="non-scaling-stroke" stroke-width="2" stroke="rgb(0,0,0)" stroke-linejoin="miter" stroke-linecap="square" stroke-miterlimit="2"/><mask id="_mask_sjkq4HzHIvfzW9PUgXJUCNpXP9mOBTYK"><rect x="37.455" y="37.455" width="8.364" height="8.364" fill="white" stroke="none"/></mask><rect x="37.455" y="37.455" width="8.364" height="8.364" transform="matrix(1,0,0,1,0,0)" fill="none"/><rect x="37.455" y="37.455" width="8.364" height="8.364" transform="matrix(1,0,0,1,0,0)" fill="none" mask="url(#_mask_sjkq4HzHIvfzW9PUgXJUCNpXP9mOBTYK)" vector-effect="non-scaling-stroke" stroke-width="2" stroke="rgb(0,0,0)" stroke-linejoin="miter" stroke-linecap="square" stroke-miterlimit="2"/><mask id="_mask_XKRNGt0Iph1yvpnGTjhpPWkWf7UH2pVB"><rect x="29.091" y="37.455" width="8.364" height="8.364" fill="white" stroke="none"/></mask><rect x="29.091" y="37.455" width="8.364" height="8.364" transform="matrix(1,0,0,1,0,0)" fill="none"/><rect x="29.091" y="37.455" width="8.364" height="8.364" transform="matrix(1,0,0,1,0,0)" fill="none" mask="url(#_mask_XKRNGt0Iph1yvpnGTjhpPWkWf7UH2pVB)" vector-effect="non-scaling-stroke" stroke-width="2" stroke="rgb(0,0,0)" stroke-linejoin="miter" stroke-linecap="square" stroke-miterlimit="2"/><mask id="_mask_PbOkUkHpfjbktiIq7yYKRDZoAWkURQrj"><rect x="20.727" y="37.455" width="8.364" height="8.364" fill="white" stroke="none"/></mask><rect x="20.727" y="37.455" width="8.364" height="8.364" transform="matrix(1,0,0,1,0,0)" fill="none"/><rect x="20.727" y="37.455" width="8.364" height="8.364" transform="matrix(1,0,0,1,0,0)" fill="none" mask="url(#_mask_PbOkUkHpfjbktiIq7yYKRDZoAWkURQrj)" vector-effect="non-scaling-stroke" stroke-width="2" stroke="rgb(0,0,0)" stroke-linejoin="miter" stroke-linecap="square" stroke-miterlimit="2"/><mask id="_mask_JOUvFeffSSG20VhgMF8e887QUtX8a6Ms"><rect x="12.364" y="37.455" width="8.364" height="8.364" fill="white" stroke="none"/></mask><rect x="12.364" y="37.455" width="8.364" height="8.364" transform="matrix(1,0,0,1,0,0)" fill="none"/><rect x="12.364" y="37.455" width="8.364" height="8.364" transform="matrix(1,0,0,1,0,0)" fill="none" mask="url(#_mask_JOUvFeffSSG20VhgMF8e887QUtX8a6Ms)" vector-effect="non-scaling-stroke" stroke-width="2" stroke="rgb(0,0,0)" stroke-linejoin="miter" stroke-linecap="square" stroke-miterlimit="2"/><mask id="_mask_OQ57H4eBT0lwFiheBStXA1I89pAJWxeY"><rect x="4" y="37.455" width="8.364" height="8.364" fill="white" stroke="none"/></mask><rect x="4" y="37.455" width="8.364" height="8.364" transform="matrix(1,0,0,1,0,0)" fill="none"/><rect x="4" y="37.455" width="8.364" height="8.364" transform="matrix(1,0,0,1,0,0)" fill="none" mask="url(#_mask_OQ57H4eBT0lwFiheBStXA1I89pAJWxeY)" vector-effect="non-scaling-stroke" stroke-width="2" stroke="rgb(0,0,0)" stroke-linejoin="miter" stroke-linecap="square" stroke-miterlimit="2"/><mask id="_mask_NjFqg1y3Ghkgm2vKm7lJNBRlwkFUfQSR"><rect x="4" y="45.818" width="8.364" height="8.364" fill="white" stroke="none"/></mask><rect x="4" y="45.818" width="8.364" height="8.364" transform="matrix(1,0,0,1,0,0)" fill="none"/><rect x="4" y="45.818" width="8.364" height="8.364" transform="matrix(1,0,0,1,0,0)" fill="none" mask="url(#_mask_NjFqg1y3Ghkgm2vKm7lJNBRlwkFUfQSR)" vector-effect="non-scaling-stroke" stroke-width="2" stroke="rgb(0,0,0)" stroke-linejoin="miter" stroke-linecap="square" stroke-miterlimit="2"/><mask id="_mask_l9fbIoQ1hFcyUiwRCLY8K9hedYKcKXUi"><rect x="4" y="54.182" width="8.364" height="8.364" fill="white" stroke="none"/></mask><rect x="4" y="54.182" width="8.364" height="8.364" transform="matrix(1,0,0,1,0,0)" fill="none"/><rect x="4" y="54.182" width="8.364" height="8.364" transform="matrix(1,0,0,1,0,0)" fill="none" mask="url(#_mask_l9fbIoQ1hFcyUiwRCLY8K9hedYKcKXUi)" vector-effect="non-scaling-stroke" stroke-width="2" stroke="rgb(0,0,0)" stroke-linejoin="miter" stroke-linecap="square" stroke-miterlimit="2"/><mask id="_mask_nLEHG0hIzCLiShocV7NZU2ggDjDRxBrd"><rect x="12.364" y="54.182" width="8.364" height="8.364" fill="white" stroke="none"/></mask><rect x="12.364" y="54.182" width="8.364" height="8.364" transform="matrix(1,0,0,1,0,0)" fill="none"/><rect x="12.364" y="54.182" width="8.364" height="8.364" transform="matrix(1,0,0,1,0,0)" fill="none" mask="url(#_mask_nLEHG0hIzCLiShocV7NZU2ggDjDRxBrd)" vector-effect="non-scaling-stroke" stroke-width="2" stroke="rgb(0,0,0)" stroke-linejoin="miter" stroke-linecap="square" stroke-miterlimit="2"/><mask id="_mask_0bUYNBVR31E92nHF5YE5ejDAoHEr2t9y"><rect x="20.727" y="54.182" width="8.364" height="8.364" fill="white" stroke="none"/></mask><rect x="20.727" y="54.182" width="8.364" height="8.364" transform="matrix(1,0,0,1,0,0)" fill="none"/><rect x="20.727" y="54.182" width="8.364" height="8.364" transform="matrix(1,0,0,1,0,0)" fill="none" mask="url(#_mask_0bUYNBVR31E92nHF5YE5ejDAoHEr2t9y)" vector-effect="non-scaling-stroke" stroke-width="2" stroke="rgb(0,0,0)" stroke-linejoin="miter" stroke-linecap="square" stroke-miterlimit="2"/><mask id="_mask_WZYZOmiLGOKjrINYtfihRYVC8a4YhO5F"><rect x="29.091" y="54.182" width="8.364" height="8.364" fill="white" stroke="none"/></mask><rect x="29.091" y="54.182" width="8.364" height="8.364" transform="matrix(1,0,0,1,0,0)" fill="none"/><rect x="29.091" y="54.182" width="8.364" height="8.364" transform="matrix(1,0,0,1,0,0)" fill="none" mask="url(#_mask_WZYZOmiLGOKjrINYtfihRYVC8a4YhO5F)" vector-effect="non-scaling-stroke" stroke-width="2" stroke="rgb(0,0,0)" stroke-linejoin="miter" stroke-linecap="square" stroke-miterlimit="2"/></g></svg>