<?xml version="1.0" encoding="UTF-8" standalone="no"?><!-- Generator: Gravit.io --><svg xmlns="http://www.w3.org/2000/svg" xmlns:xlink="http://www.w3.org/1999/xlink" style="isolation:isolate" viewBox="0 0 110 110" width="110pt" height="110pt"><defs><clipPath id="_clipPath_gEjcDsvGBytAem5faqxWF5TIvYm66x4A"><rect width="110" height="110"/></clipPath></defs><g clip-path="url(#_clipPath_gEjcDsvGBytAem5faqxWF5TIvYm66x4A)"><mask id="_mask_gtaS6NPzeZlPVkkCFFKFrDH7b5hLVCGU"><rect x="5" y="5" width="100" height="100" fill="white" stroke="none"/></mask><rect x="5" y="5" width="100" height="100" transform="matrix(1,0,0,1,0,0)" fill="none"/><rect x="5" y="5" width="100" height="100" transform="matrix(1,0,0,1,0,0)" fill="none" mask="url(#_mask_gtaS6NPzeZlPVkkCFFKFrDH7b5hLVCGU)" vector-effect="non-scaling-stroke" stroke-width="2" stroke="rgb(0,0,0)" stroke-linejoin="miter" stroke-linecap="square" stroke-miterlimit="2"/><line x1="15" y1="6" x2="15" y2="104.478" vector-effect="non-scaling-stroke" stroke-width="1" stroke="rgb(0,0,0)" stroke-linejoin="miter" stroke-linecap="square" stroke-miterlimit="3"/><line x1="25" y1="6" x2="25" y2="104.478" vector-effect="non-scaling-stroke" stroke-width="1" stroke="rgb(0,0,0)" stroke-linejoin="miter" stroke-linecap="square" stroke-miterlimit="3"/><line x1="35" y1="6" x2="35" y2="104.478" vector-effect="non-scaling-stroke" stroke-width="1" stroke="rgb(0,0,0)" stroke-linejoin="miter" stroke-linecap="square" stroke-miterlimit="3"/><line x1="45" y1="6" x2="45" y2="104.478" vector-effect="non-scaling-stroke" stroke-width="1" stroke="rgb(0,0,0)" stroke-linejoin="miter" stroke-linecap="square" stroke-miterlimit="3"/><line x1="55" y1="6" x2="55" y2="104.478" vector-effect="non-scaling-stroke" stroke-width="1" stroke="rgb(0,0,0)" stroke-linejoin="miter" stroke-linecap="square" stroke-miterlimit="3"/><line x1="65" y1="6" x2="65" y2="104.478" vector-effect="non-scaling-stroke" stroke-width="1" stroke="rgb(0,0,0)" stroke-linejoin="miter" stroke-linecap="square" stroke-miterlimit="3"/><line x1="75" y1="6" x2="75" y2="104.478" vector-effect="non-scaling-stroke" stroke-width="1" stroke="rgb(0,0,0)" stroke-linejoin="miter" stroke-linecap="square" stroke-miterlimit="3"/><line x1="85" y1="6" x2="85" y2="104.478" vector-effect="non-scaling-stroke" stroke-width="1" stroke="rgb(0,0,0)" stroke-linejoin="miter" stroke-linecap="square" stroke-miterlimit="3"/><line x1="95" y1="6" x2="95" y2="104.478" vector-effect="non-scaling-stroke" stroke-width="1" stroke="rgb(0,0,0)" stroke-linejoin="miter" stroke-linecap="square" stroke-miterlimit="3"/><line x1="6" y1="15" x2="104" y2="15" vector-effect="non-scaling-stroke" stroke-width="1" stroke="rgb(0,0,0)" stroke-linejoin="miter" stroke-linecap="square" stroke-miterlimit="3"/><line x1="6" y1="25" x2="104" y2="25" vector-effect="non-scaling-stroke" stroke-width="1" stroke="rgb(0,0,0)" stroke-linejoin="miter" stroke-linecap="square" stroke-miterlimit="3"/><line x1="6" y1="35" x2="104" y2="35" vector-effect="non-scaling-stroke" stroke-width="1" stroke="rgb(0,0,0)" stroke-linejoin="miter" stroke-linecap="square" stroke-miterlimit="3"/><line x1="6" y1="45" x2="104" y2="45" vector-effect="non-scaling-stroke" stroke-width="1" stroke="rgb(0,0,0)" stroke-linejoin="miter" stroke-linecap="square" stroke-miterlimit="3"/><line x1="6" y1="55" x2="104" y2="55" vector-effect="non-scaling-stroke" stroke-width="1" stroke="rgb(0,0,0)" stroke-linejoin="miter" stroke-linecap="square" stroke-miterlimit="3"/><line x1="6" y1="65" x2="104" y2="65" vector-effect="non-scaling-stroke" stroke-width="1" stroke="rgb(0,0,0)" stroke-linejoin="miter" stroke-linecap="square" stroke-miterlimit="3"/><line x1="6" y1="75" x2="104" y2="75" vector-effect="non-scaling-stroke" stroke-width="1" stroke="rgb(0,0,0)" stroke-linejoin="miter" stroke-linecap="square" stroke-miterlimit="3"/><line x1="6" y1="85" x2="104" y2="85" vector-effect="non-scaling-stroke" stroke-width="1" stroke="rgb(0,0,0)" stroke-linejoin="miter" stroke-linecap="square" stroke-miterlimit="3"/><line x1="6" y1="95" x2="104" y2="95" vector-effect="non-scaling-stroke" stroke-width="1" stroke="rgb(0,0,0)" stroke-linejoin="miter" stroke-linecap="square" stroke-miterlimit="3"/><rect x="55.5" y="55.5" width="9" height="9" transform="matrix(1,0,0,1,0,0)" fill="rgb(103,103,255)"/><rect x="55.5" y="45.5" width="9" height="9" transform="matrix(1,0,0,1,0,0)" fill="rgb(134,134,255)"/><rect x="45.5" y="45.5" width="9" height="9" transform="matrix(1,0,0,1,0,0)" fill="rgb(168,168,255)"/><rect x="55.5" y="35.5" width="9" height="9" transform="matrix(1,0,0,1,0,0)" fill="rgb(0,0,189)"/><rect x="45.5" y="35.5" width="9" height="9" transform="matrix(1,0,0,1,0,0)" fill="rgb(0,0,255)"/><rect x="45.5" y="55.5" width="9" height="9" transform="matrix(1,0,0,1,0,0)" fill="rgb(75,75,255)"/><rect x="55.5" y="65.5" width="9" height="9" transform="matrix(1,0,0,1,0,0)" fill="rgb(0,0,0)"/><rect x="65.5" y="55.5" width="9" height="9" transform="matrix(1,0,0,1,0,0)" fill="rgb(0,0,57)"/><rect x="65.5" y="45.5" width="9" height="9" transform="matrix(1,0,0,1,0,0)" fill="rgb(0,0,81)"/><rect x="65.5" y="35.5" width="9" height="9" transform="matrix(1,0,0,1,0,0)" fill="rgb(0,0,145)"/><rect x="65.5" y="65.5" width="9" height="9" transform="matrix(1,0,0,1,0,0)" fill="rgb(0,0,0)"/><rect x="45.5" y="65.5" width="9" height="9" transform="matrix(1,0,0,1,0,0)" fill="rgb(0,0,0)"/><rect x="35.5" y="45.5" width="9" height="9" transform="matrix(1,0,0,1,0,0)" fill="rgb(49,49,249)"/><rect x="35.5" y="35.5" width="9" height="9" transform="matrix(1,0,0,1,0,0)" fill="rgb(25,25,255)"/><rect x="35.5" y="55.5" width="9" height="9" transform="matrix(1,0,0,1,0,0)" fill="rgb(82,82,255)"/><rect x="35.5" y="65.5" width="9" height="9" transform="matrix(1,0,0,1,0,0)" fill="rgb(0,0,0)"/><g clip-path="url(#_clipPath_cc3Yti6CosjskQogkv26eDJmGNRq8nJa)"><text transform="matrix(1,0,0,1,48.288,52.242)" style="font-family:'Open Sans';font-weight:700;font-size:6px;font-style:normal;fill:#ffffff;stroke:none;">0</text></g><defs><clipPath id="_clipPath_cc3Yti6CosjskQogkv26eDJmGNRq8nJa"><rect x="0" y="0" width="6" height="8.342" transform="matrix(1,0,0,1,48,45.658)"/></clipPath></defs><g clip-path="url(#_clipPath_XmwZ9wwFrLQWUMcGzOlkyownjxE0RtPF)"><text transform="matrix(1,0,0,1,58.288,52.242)" style="font-family:'Open Sans';font-weight:700;font-size:6px;font-style:normal;fill:#ffffff;stroke:none;">1</text></g><defs><clipPath id="_clipPath_XmwZ9wwFrLQWUMcGzOlkyownjxE0RtPF"><rect x="0" y="0" width="6" height="8.342" transform="matrix(1,0,0,1,58,45.658)"/></clipPath></defs><g clip-path="url(#_clipPath_ajC2rmrBwSFRNN1epKR8kaRMenAcDsam)"><text transform="matrix(1,0,0,1,58.288,62.242)" style="font-family:'Open Sans';font-weight:700;font-size:6px;font-style:normal;fill:#ffffff;stroke:none;">2</text></g><defs><clipPath id="_clipPath_ajC2rmrBwSFRNN1epKR8kaRMenAcDsam"><rect x="0" y="0" width="6" height="8.342" transform="matrix(1,0,0,1,58,55.658)"/></clipPath></defs><g clip-path="url(#_clipPath_NuqVbeGRvv5O9KbO1wMKk8xH47obvWBY)"><text transform="matrix(1,0,0,1,48.288,62.242)" style="font-family:'Open Sans';font-weight:700;font-size:6px;font-style:normal;fill:#ffffff;stroke:none;">3</text></g><defs><clipPath id="_clipPath_NuqVbeGRvv5O9KbO1wMKk8xH47obvWBY"><rect x="0" y="0" width="6" height="8.342" transform="matrix(1,0,0,1,48,55.658)"/></clipPath></defs><g clip-path="url(#_clipPath_aTlvCakbHe2zYY7glTfDMLiVf4RUvEQB)"><text transform="matrix(1,0,0,1,38.288,62.242)" style="font-family:'Open Sans';font-weight:700;font-size:6px;font-style:normal;fill:#ffffff;stroke:none;">4</text></g><defs><clipPath id="_clipPath_aTlvCakbHe2zYY7glTfDMLiVf4RUvEQB"><rect x="0" y="0" width="6" height="8.342" transform="matrix(1,0,0,1,38,55.658)"/></clipPath></defs><g clip-path="url(#_clipPath_PlB83EaEOxuWnKEk8JBgpjOTFek6cCaq)"><text transform="matrix(1,0,0,1,38.288,52.242)" style="font-family:'Open Sans';font-weight:700;font-size:6px;font-style:normal;fill:#ffffff;stroke:none;">5</text></g><defs><clipPath id="_clipPath_PlB83EaEOxuWnKEk8JBgpjOTFek6cCaq"><rect x="0" y="0" width="6" height="8.342" transform="matrix(1,0,0,1,38,45.658)"/></clipPath></defs><g clip-path="url(#_clipPath_SE1Thsx26BOkqPvtkWeW8dmnpvNtVE0W)"><text transform="matrix(1,0,0,1,38.288,42.242)" style="font-family:'Open Sans';font-weight:700;font-size:6px;font-style:normal;fill:#ffffff;stroke:none;">6</text></g><defs><clipPath id="_clipPath_SE1Thsx26BOkqPvtkWeW8dmnpvNtVE0W"><rect x="0" y="0" width="6" height="8.342" transform="matrix(1,0,0,1,38,35.658)"/></clipPath></defs><g clip-path="url(#_clipPath_1wmmE0FHtdlmG6lDEeTMMTHQcosluw3O)"><text transform="matrix(1,0,0,1,48.288,42.242)" style="font-family:'Open Sans';font-weight:700;font-size:6px;font-style:normal;fill:#ffffff;stroke:none;">7</text></g><defs><clipPath id="_clipPath_1wmmE0FHtdlmG6lDEeTMMTHQcosluw3O"><rect x="0" y="0" width="6" height="8.342" transform="matrix(1,0,0,1,48,35.658)"/></clipPath></defs><g clip-path="url(#_clipPath_GAAd7seJpcqM8xHUu6Unisl1LJFeQjxQ)"><text transform="matrix(1,0,0,1,58.288,42.242)" style="font-family:'Open Sans';font-weight:700;font-size:6px;font-style:normal;fill:#ffffff;stroke:none;">8</text></g><defs><clipPath id="_clipPath_GAAd7seJpcqM8xHUu6Unisl1LJFeQjxQ"><rect x="0" y="0" width="6" height="8.342" transform="matrix(1,0,0,1,58,35.658)"/></clipPath></defs><g clip-path="url(#_clipPath_2UpD7dH65y3ZLZHDos1pcBNJnarHVrGk)"><text transform="matrix(1,0,0,1,68.288,42.242)" style="font-family:'Open Sans';font-weight:700;font-size:6px;font-style:normal;fill:#ffffff;stroke:none;">9</text></g><defs><clipPath id="_clipPath_2UpD7dH65y3ZLZHDos1pcBNJnarHVrGk"><rect x="0" y="0" width="6" height="8.342" transform="matrix(1,0,0,1,68,35.658)"/></clipPath></defs><g clip-path="url(#_clipPath_MHZp9Mn9VENsx0rLk8Faw5MYhovXxysM)"><text transform="matrix(1,0,0,1,66.575,52.242)" style="font-family:'Open Sans';font-weight:700;font-size:6px;font-style:normal;fill:#ffffff;stroke:none;">10</text></g><defs><clipPath id="_clipPath_MHZp9Mn9VENsx0rLk8Faw5MYhovXxysM"><rect x="0" y="0" width="9" height="8.342" transform="matrix(1,0,0,1,66.5,45.658)"/></clipPath></defs><g clip-path="url(#_clipPath_XZ8ehPLT47PtkbBVSJeb1Q4qGNCFNMND)"><text transform="matrix(1,0,0,1,66.575,62.242)" style="font-family:'Open Sans';font-weight:700;font-size:6px;font-style:normal;fill:#ffffff;stroke:none;">11</text></g><defs><clipPath id="_clipPath_XZ8ehPLT47PtkbBVSJeb1Q4qGNCFNMND"><rect x="0" y="0" width="9" height="8.342" transform="matrix(1,0,0,1,66.5,55.658)"/></clipPath></defs><g clip-path="url(#_clipPath_jO9ILiK7xPdOZ8Hb8W4KX1hUUcFKRQnp)"><text transform="matrix(1,0,0,1,66.575,72.242)" style="font-family:'Open Sans';font-weight:700;font-size:6px;font-style:normal;fill:#ffffff;stroke:none;">12</text></g><defs><clipPath id="_clipPath_jO9ILiK7xPdOZ8Hb8W4KX1hUUcFKRQnp"><rect x="0" y="0" width="9" height="8.342" transform="matrix(1,0,0,1,66.5,65.658)"/></clipPath></defs><g clip-path="url(#_clipPath_aY6rIYEGdsin5UAKHbgx8YdqO8uY84bK)"><text transform="matrix(1,0,0,1,56.575,72.242)" style="font-family:'Open Sans';font-weight:700;font-size:6px;font-style:normal;fill:#ffffff;stroke:none;">13</text></g><defs><clipPath id="_clipPath_aY6rIYEGdsin5UAKHbgx8YdqO8uY84bK"><rect x="0" y="0" width="9" height="8.342" transform="matrix(1,0,0,1,56.5,65.658)"/></clipPath></defs><g clip-path="url(#_clipPath_Kyauim1cWVgTwpRpn2GKAKvC0ao0cTJT)"><text transform="matrix(1,0,0,1,46.575,72.242)" style="font-family:'Open Sans';font-weight:700;font-size:6px;font-style:normal;fill:#ffffff;stroke:none;">14</text></g><defs><clipPath id="_clipPath_Kyauim1cWVgTwpRpn2GKAKvC0ao0cTJT"><rect x="0" y="0" width="9" height="8.342" transform="matrix(1,0,0,1,46.5,65.658)"/></clipPath></defs><g clip-path="url(#_clipPath_37NCkETsu4Jlt6S0fDjFoGCZeT7vF65e)"><text transform="matrix(1,0,0,1,36.575,72.242)" style="font-family:'Open Sans';font-weight:700;font-size:6px;font-style:normal;fill:#ffffff;stroke:none;">15</text></g><defs><clipPath id="_clipPath_37NCkETsu4Jlt6S0fDjFoGCZeT7vF65e"><rect x="0" y="0" width="9" height="8.342" transform="matrix(1,0,0,1,36.5,65.658)"/></clipPath></defs></g></svg>