<?xml version="1.0" encoding="UTF-8" standalone="no"?><!-- Generator: Gravit.io --><svg xmlns="http://www.w3.org/2000/svg" xmlns:xlink="http://www.w3.org/1999/xlink" style="isolation:isolate" viewBox="0 0 100 100" width="100pt" height="100pt"><defs><clipPath id="_clipPath_78qMgVca195gWjOqC0FBHlH68l5npt2h"><rect width="100" height="100"/></clipPath></defs><g clip-path="url(#_clipPath_78qMgVca195gWjOqC0FBHlH68l5npt2h)"><g clip-path="url(#_clipPath_ym7PpuDW4i8PZVLvKefebRzMdoVWltqT)"><text transform="matrix(1,0,0,1,3,17.482)" style="font-family:'Open Sans';font-weight:400;font-size:7px;font-style:normal;fill:#000000;stroke:none;">Würfel 1</text></g><defs><clipPath id="_clipPath_ym7PpuDW4i8PZVLvKefebRzMdoVWltqT"><rect x="0" y="0" width="32" height="10" transform="matrix(1,0,0,1,3,10)"/></clipPath></defs><g clip-path="url(#_clipPath_WPn7LRj4uZLSBtOh4F1hLfaPHrmi4fZI)"><text transform="matrix(1,0,0,1,3,31.482)" style="font-family:'Open Sans';font-weight:400;font-size:7px;font-style:normal;fill:#000000;stroke:none;">Würfel 2</text></g><defs><clipPath id="_clipPath_WPn7LRj4uZLSBtOh4F1hLfaPHrmi4fZI"><rect x="0" y="0" width="32" height="10" transform="matrix(1,0,0,1,3,24)"/></clipPath></defs><g clip-path="url(#_clipPath_cgzbdyjKFI0Vv9TeLZ9iYDZLHOTfvLyA)"><text transform="matrix(1,0,0,1,3,45.482)" style="font-family:'Open Sans';font-weight:400;font-size:7px;font-style:normal;fill:#000000;stroke:none;">Würfel 3</text></g><defs><clipPath id="_clipPath_cgzbdyjKFI0Vv9TeLZ9iYDZLHOTfvLyA"><rect x="0" y="0" width="32" height="10" transform="matrix(1,0,0,1,3,38)"/></clipPath></defs><g clip-path="url(#_clipPath_HZsupHTCbAkCUYq3fgM2q9SDuu2kRQtE)"><text transform="matrix(1,0,0,1,3,59.482)" style="font-family:'Open Sans';font-weight:400;font-size:7px;font-style:normal;fill:#000000;stroke:none;">Würfel 4</text></g><defs><clipPath id="_clipPath_HZsupHTCbAkCUYq3fgM2q9SDuu2kRQtE"><rect x="0" y="0" width="32" height="10" transform="matrix(1,0,0,1,3,52)"/></clipPath></defs><g clip-path="url(#_clipPath_KkQo9LxK3D1dAhmbroFBGU8VcNgsmNsJ)"><text transform="matrix(1,0,0,1,3,73.482)" style="font-family:'Open Sans';font-weight:400;font-size:7px;font-style:normal;fill:#000000;stroke:none;">Würfel 5</text></g><defs><clipPath id="_clipPath_KkQo9LxK3D1dAhmbroFBGU8VcNgsmNsJ"><rect x="0" y="0" width="32" height="10" transform="matrix(1,0,0,1,3,66)"/></clipPath></defs><g clip-path="url(#_clipPath_3azuTQhmCKTWCc2p0uzxjelksizI4mlV)"><text transform="matrix(1,0,0,1,3,87.482)" style="font-family:'Open Sans';font-weight:400;font-size:7px;font-style:normal;fill:#000000;stroke:none;">Würfel 6</text></g><defs><clipPath id="_clipPath_3azuTQhmCKTWCc2p0uzxjelksizI4mlV"><rect x="0" y="0" width="32" height="10" transform="matrix(1,0,0,1,3,80)"/></clipPath></defs><g clip-path="url(#_clipPath_P5Z6cARkXqqN8lsDqX5LxscxIVJykoFT)"><text transform="matrix(1,0,0,1,68.475,17.482)" style="font-family:'Open Sans';font-weight:400;font-size:7px;font-style:normal;fill:#000000;stroke:none;">Würfel 1</text></g><defs><clipPath id="_clipPath_P5Z6cARkXqqN8lsDqX5LxscxIVJykoFT"><rect x="0" y="0" width="32" height="10" transform="matrix(1,0,0,1,66,10)"/></clipPath></defs><g clip-path="url(#_clipPath_qG4GsuGDrviv352FWJL0Pcu6o5h47Y9X)"><text transform="matrix(1,0,0,1,68.475,31.482)" style="font-family:'Open Sans';font-weight:400;font-size:7px;font-style:normal;fill:#000000;stroke:none;">Würfel 2</text></g><defs><clipPath id="_clipPath_qG4GsuGDrviv352FWJL0Pcu6o5h47Y9X"><rect x="0" y="0" width="32" height="10" transform="matrix(1,0,0,1,66,24)"/></clipPath></defs><g clip-path="url(#_clipPath_a6sfrgz6QUYtmGFlWvsZ3lvkVwRgPhA0)"><text transform="matrix(1,0,0,1,68.475,45.482)" style="font-family:'Open Sans';font-weight:400;font-size:7px;font-style:normal;fill:#000000;stroke:none;">Würfel 3</text></g><defs><clipPath id="_clipPath_a6sfrgz6QUYtmGFlWvsZ3lvkVwRgPhA0"><rect x="0" y="0" width="32" height="10" transform="matrix(1,0,0,1,66,38)"/></clipPath></defs><g clip-path="url(#_clipPath_mHG0O2uggxqLzlxAFl8HiWTD1y82wk65)"><text transform="matrix(1,0,0,1,68.475,59.482)" style="font-family:'Open Sans';font-weight:400;font-size:7px;font-style:normal;fill:#000000;stroke:none;">Würfel 4</text></g><defs><clipPath id="_clipPath_mHG0O2uggxqLzlxAFl8HiWTD1y82wk65"><rect x="0" y="0" width="32" height="10" transform="matrix(1,0,0,1,66,52)"/></clipPath></defs><g clip-path="url(#_clipPath_LuBFr0ZYXi3Ou0Dh8qPi11PBWbVtMxrE)"><text transform="matrix(1,0,0,1,68.475,73.482)" style="font-family:'Open Sans';font-weight:400;font-size:7px;font-style:normal;fill:#000000;stroke:none;">Würfel 5</text></g><defs><clipPath id="_clipPath_LuBFr0ZYXi3Ou0Dh8qPi11PBWbVtMxrE"><rect x="0" y="0" width="32" height="10" transform="matrix(1,0,0,1,66,66)"/></clipPath></defs><g clip-path="url(#_clipPath_gb2N42z7EF9SVWwwVPIIxtgh5RkSk55p)"><text transform="matrix(1,0,0,1,68.475,87.482)" style="font-family:'Open Sans';font-weight:400;font-size:7px;font-style:normal;fill:#000000;stroke:none;">Würfel 6</text></g><defs><clipPath id="_clipPath_gb2N42z7EF9SVWwwVPIIxtgh5RkSk55p"><rect x="0" y="0" width="32" height="10" transform="matrix(1,0,0,1,66,80)"/></clipPath></defs><line x1="35" y1="15" x2="66" y2="29" vector-effect="non-scaling-stroke" stroke-width="1" stroke="rgb(0,0,0)" stroke-linejoin="miter" stroke-linecap="square" stroke-miterlimit="3"/><line x1="35" y1="15" x2="66" y2="43" vector-effect="non-scaling-stroke" stroke-width="1" stroke="rgb(0,0,0)" stroke-linejoin="miter" stroke-linecap="square" stroke-miterlimit="3"/><line x1="35" y1="15" x2="66" y2="57" vector-effect="non-scaling-stroke" stroke-width="1" stroke="rgb(0,0,0)" stroke-linejoin="miter" stroke-linecap="square" stroke-miterlimit="3"/><line x1="35" y1="15" x2="66" y2="71" vector-effect="non-scaling-stroke" stroke-width="1" stroke="rgb(0,0,0)" stroke-linejoin="miter" stroke-linecap="square" stroke-miterlimit="3"/><line x1="35" y1="15" x2="66" y2="85" vector-effect="non-scaling-stroke" stroke-width="1" stroke="rgb(0,0,0)" stroke-linejoin="miter" stroke-linecap="square" stroke-miterlimit="3"/><line x1="36" y1="29" x2="67" y2="43" vector-effect="non-scaling-stroke" stroke-width="1" stroke="rgb(255,0,0)" stroke-linejoin="miter" stroke-linecap="square" stroke-miterlimit="3"/><line x1="36" y1="29" x2="67" y2="57" vector-effect="non-scaling-stroke" stroke-width="1" stroke="rgb(255,0,0)" stroke-linejoin="miter" stroke-linecap="square" stroke-miterlimit="3"/><line x1="36" y1="29" x2="67" y2="71" vector-effect="non-scaling-stroke" stroke-width="1" stroke="rgb(255,0,0)" stroke-linejoin="miter" stroke-linecap="square" stroke-miterlimit="3"/><line x1="36" y1="29" x2="67" y2="85" vector-effect="non-scaling-stroke" stroke-width="1" stroke="rgb(255,0,0)" stroke-linejoin="miter" stroke-linecap="square" stroke-miterlimit="3"/><line x1="35" y1="43" x2="66" y2="57" vector-effect="non-scaling-stroke" stroke-width="1" stroke="rgb(0,255,85)" stroke-linejoin="miter" stroke-linecap="square" stroke-miterlimit="3"/><line x1="35" y1="43" x2="66" y2="70" vector-effect="non-scaling-stroke" stroke-width="1" stroke="rgb(0,255,85)" stroke-linejoin="miter" stroke-linecap="square" stroke-miterlimit="3"/><line x1="35" y1="43" x2="66" y2="85" vector-effect="non-scaling-stroke" stroke-width="1" stroke="rgb(0,255,85)" stroke-linejoin="miter" stroke-linecap="square" stroke-miterlimit="3"/><line x1="35" y1="57" x2="66" y2="71" vector-effect="non-scaling-stroke" stroke-width="1" stroke="rgb(0,47,255)" stroke-linejoin="miter" stroke-linecap="square" stroke-miterlimit="3"/><line x1="35" y1="71" x2="66" y2="85" vector-effect="non-scaling-stroke" stroke-width="1" stroke="rgb(191,255,0)" stroke-linejoin="miter" stroke-linecap="square" stroke-miterlimit="3"/><line x1="35" y1="57" x2="66" y2="85" vector-effect="non-scaling-stroke" stroke-width="1" stroke="rgb(0,47,255)" stroke-linejoin="miter" stroke-linecap="square" stroke-miterlimit="3"/></g></svg>