<?xml version="1.0" encoding="UTF-8" standalone="no"?><!-- Generator: Gravit.io --><svg xmlns="http://www.w3.org/2000/svg" xmlns:xlink="http://www.w3.org/1999/xlink" style="isolation:isolate" viewBox="0 0 400 100" width="400pt" height="100pt"><defs><clipPath id="_clipPath_beQ0XxNczzQGsrdZHGeK4Po0IK0d0TCq"><rect width="400" height="100"/></clipPath></defs><g clip-path="url(#_clipPath_beQ0XxNczzQGsrdZHGeK4Po0IK0d0TCq)"><mask id="_mask_8g8GlEeH2nprj3LLWXZN1MUj8tyfJinf"><rect x="3" y="24" width="16" height="16" fill="white" stroke="none"/></mask><rect x="3" y="24" width="16" height="16" transform="matrix(1,0,0,1,0,0)" fill="none"/><rect x="3" y="24" width="16" height="16" transform="matrix(1,0,0,1,0,0)" fill="none" mask="url(#_mask_8g8GlEeH2nprj3LLWXZN1MUj8tyfJinf)" vector-effect="non-scaling-stroke" stroke-width="4" stroke="rgb(65,115,255)" stroke-linejoin="miter" stroke-linecap="square" stroke-miterlimit="2"/><mask id="_mask_VjmY9xtDDPl1EXrFPLjtnTV9HoAGBy4i"><rect x="20.455" y="24" width="16" height="16" fill="white" stroke="none"/></mask><rect x="20.455" y="24" width="16" height="16" transform="matrix(1,0,0,1,0,0)" fill="none"/><rect x="20.455" y="24" width="16" height="16" transform="matrix(1,0,0,1,0,0)" fill="none" mask="url(#_mask_VjmY9xtDDPl1EXrFPLjtnTV9HoAGBy4i)" vector-effect="non-scaling-stroke" stroke-width="4" stroke="rgb(0,0,0)" stroke-linejoin="miter" stroke-linecap="square" stroke-miterlimit="2"/><mask id="_mask_dBF7NaREzTXvmtaiLE3FxtJcYTQYS7kQ"><rect x="37.909" y="24" width="16" height="16" fill="white" stroke="none"/></mask><rect x="37.909" y="24" width="16" height="16" transform="matrix(1,0,0,1,0,0)" fill="none"/><rect x="37.909" y="24" width="16" height="16" transform="matrix(1,0,0,1,0,0)" fill="none" mask="url(#_mask_dBF7NaREzTXvmtaiLE3FxtJcYTQYS7kQ)" vector-effect="non-scaling-stroke" stroke-width="4" stroke="rgb(0,0,0)" stroke-linejoin="miter" stroke-linecap="square" stroke-miterlimit="2"/><mask id="_mask_T4KHpJ4O2t1o3OpK98n0hrwcOp3tCFZi"><rect x="55.364" y="24" width="16" height="16" fill="white" stroke="none"/></mask><rect x="55.364" y="24" width="16" height="16" transform="matrix(1,0,0,1,0,0)" fill="none"/><rect x="55.364" y="24" width="16" height="16" transform="matrix(1,0,0,1,0,0)" fill="none" mask="url(#_mask_T4KHpJ4O2t1o3OpK98n0hrwcOp3tCFZi)" vector-effect="non-scaling-stroke" stroke-width="4" stroke="rgb(0,0,0)" stroke-linejoin="miter" stroke-linecap="square" stroke-miterlimit="2"/><mask id="_mask_tEUNr9twL65xb0oZytgPceQFGcbIQFbU"><rect x="72.818" y="24" width="16" height="16" fill="white" stroke="none"/></mask><rect x="72.818" y="24" width="16" height="16" transform="matrix(1,0,0,1,0,0)" fill="none"/><rect x="72.818" y="24" width="16" height="16" transform="matrix(1,0,0,1,0,0)" fill="none" mask="url(#_mask_tEUNr9twL65xb0oZytgPceQFGcbIQFbU)" vector-effect="non-scaling-stroke" stroke-width="4" stroke="rgb(0,0,0)" stroke-linejoin="miter" stroke-linecap="square" stroke-miterlimit="2"/><mask id="_mask_Rls6vRa8WWRpInQHnv7WcYRlnTMX4CXG"><rect x="90.273" y="24" width="16" height="16" fill="white" stroke="none"/></mask><rect x="90.273" y="24" width="16" height="16" transform="matrix(1,0,0,1,0,0)" fill="none"/><rect x="90.273" y="24" width="16" height="16" transform="matrix(1,0,0,1,0,0)" fill="none" mask="url(#_mask_Rls6vRa8WWRpInQHnv7WcYRlnTMX4CXG)" vector-effect="non-scaling-stroke" stroke-width="4" stroke="rgb(0,0,0)" stroke-linejoin="miter" stroke-linecap="square" stroke-miterlimit="2"/><mask id="_mask_coSaAYACynmoamqfoSZWAFl17I2z4Ycq"><rect x="107.727" y="24" width="16" height="16" fill="white" stroke="none"/></mask><rect x="107.727" y="24" width="16" height="16" transform="matrix(1,0,0,1,0,0)" fill="none"/><rect x="107.727" y="24" width="16" height="16" transform="matrix(1,0,0,1,0,0)" fill="none" mask="url(#_mask_coSaAYACynmoamqfoSZWAFl17I2z4Ycq)" vector-effect="non-scaling-stroke" stroke-width="4" stroke="rgb(0,0,0)" stroke-linejoin="miter" stroke-linecap="square" stroke-miterlimit="2"/><mask id="_mask_E2tVOFXksPxnfovUQryBk8BCS16jpghw"><rect x="125.182" y="24" width="16" height="16" fill="white" stroke="none"/></mask><rect x="125.182" y="24" width="16" height="16" transform="matrix(1,0,0,1,0,0)" fill="none"/><rect x="125.182" y="24" width="16" height="16" transform="matrix(1,0,0,1,0,0)" fill="none" mask="url(#_mask_E2tVOFXksPxnfovUQryBk8BCS16jpghw)" vector-effect="non-scaling-stroke" stroke-width="4" stroke="rgb(0,0,0)" stroke-linejoin="miter" stroke-linecap="square" stroke-miterlimit="2"/><mask id="_mask_nbsY4zaTfFzEGZ1mm2lcg4HzAM5ZSjTD"><rect x="142.636" y="24" width="16" height="16" fill="white" stroke="none"/></mask><rect x="142.636" y="24" width="16" height="16" transform="matrix(1,0,0,1,0,0)" fill="none"/><rect x="142.636" y="24" width="16" height="16" transform="matrix(1,0,0,1,0,0)" fill="none" mask="url(#_mask_nbsY4zaTfFzEGZ1mm2lcg4HzAM5ZSjTD)" vector-effect="non-scaling-stroke" stroke-width="4" stroke="rgb(0,0,0)" stroke-linejoin="miter" stroke-linecap="square" stroke-miterlimit="2"/><mask id="_mask_Lng5Thr4yXVwlSyssH0E4GNM9B2g9QoH"><rect x="160.091" y="24" width="16" height="16" fill="white" stroke="none"/></mask><rect x="160.091" y="24" width="16" height="16" transform="matrix(1,0,0,1,0,0)" fill="none"/><rect x="160.091" y="24" width="16" height="16" transform="matrix(1,0,0,1,0,0)" fill="none" mask="url(#_mask_Lng5Thr4yXVwlSyssH0E4GNM9B2g9QoH)" vector-effect="non-scaling-stroke" stroke-width="4" stroke="rgb(0,0,0)" stroke-linejoin="miter" stroke-linecap="square" stroke-miterlimit="2"/><mask id="_mask_jSxH0oI8yy9aAuHehup9BY120P8g9YFt"><rect x="177.545" y="24" width="16" height="16" fill="white" stroke="none"/></mask><rect x="177.545" y="24" width="16" height="16" transform="matrix(1,0,0,1,0,0)" fill="none"/><rect x="177.545" y="24" width="16" height="16" transform="matrix(1,0,0,1,0,0)" fill="none" mask="url(#_mask_jSxH0oI8yy9aAuHehup9BY120P8g9YFt)" vector-effect="non-scaling-stroke" stroke-width="4" stroke="rgb(0,0,0)" stroke-linejoin="miter" stroke-linecap="square" stroke-miterlimit="2"/><mask id="_mask_dQ9vtqyyJqX4xwCj2PkP02ZdfHJ5k4Ok"><rect x="195" y="24" width="16" height="16" fill="white" stroke="none"/></mask><rect x="195" y="24" width="16" height="16" transform="matrix(1,0,0,1,0,0)" fill="none"/><rect x="195" y="24" width="16" height="16" transform="matrix(1,0,0,1,0,0)" fill="none" mask="url(#_mask_dQ9vtqyyJqX4xwCj2PkP02ZdfHJ5k4Ok)" vector-effect="non-scaling-stroke" stroke-width="4" stroke="rgb(0,0,0)" stroke-linejoin="miter" stroke-linecap="square" stroke-miterlimit="2"/><mask id="_mask_UME4JofZcos3X5lYpQf9VqG96EVMsiC2"><rect x="212.455" y="24" width="16" height="16" fill="white" stroke="none"/></mask><rect x="212.455" y="24" width="16" height="16" transform="matrix(1,0,0,1,0,0)" fill="none"/><rect x="212.455" y="24" width="16" height="16" transform="matrix(1,0,0,1,0,0)" fill="none" mask="url(#_mask_UME4JofZcos3X5lYpQf9VqG96EVMsiC2)" vector-effect="non-scaling-stroke" stroke-width="4" stroke="rgb(0,0,0)" stroke-linejoin="miter" stroke-linecap="square" stroke-miterlimit="2"/><mask id="_mask_IivE1FixofmNzJxnvVIEoDjOopevZaEQ"><rect x="229.909" y="24" width="16" height="16" fill="white" stroke="none"/></mask><rect x="229.909" y="24" width="16" height="16" transform="matrix(1,0,0,1,0,0)" fill="none"/><rect x="229.909" y="24" width="16" height="16" transform="matrix(1,0,0,1,0,0)" fill="none" mask="url(#_mask_IivE1FixofmNzJxnvVIEoDjOopevZaEQ)" vector-effect="non-scaling-stroke" stroke-width="4" stroke="rgb(0,0,0)" stroke-linejoin="miter" stroke-linecap="square" stroke-miterlimit="2"/><mask id="_mask_bjdePIts0ekEiFkO6bWX9TdPXSqO12df"><rect x="247.364" y="24" width="16" height="16" fill="white" stroke="none"/></mask><rect x="247.364" y="24" width="16" height="16" transform="matrix(1,0,0,1,0,0)" fill="none"/><rect x="247.364" y="24" width="16" height="16" transform="matrix(1,0,0,1,0,0)" fill="none" mask="url(#_mask_bjdePIts0ekEiFkO6bWX9TdPXSqO12df)" vector-effect="non-scaling-stroke" stroke-width="4" stroke="rgb(0,0,0)" stroke-linejoin="miter" stroke-linecap="square" stroke-miterlimit="2"/><mask id="_mask_7zsCpuPZUipHJTJPhHCUxP7rdNgGYyPr"><rect x="264.818" y="24" width="16" height="16" fill="white" stroke="none"/></mask><rect x="264.818" y="24" width="16" height="16" transform="matrix(1,0,0,1,0,0)" fill="none"/><rect x="264.818" y="24" width="16" height="16" transform="matrix(1,0,0,1,0,0)" fill="none" mask="url(#_mask_7zsCpuPZUipHJTJPhHCUxP7rdNgGYyPr)" vector-effect="non-scaling-stroke" stroke-width="4" stroke="rgb(0,0,0)" stroke-linejoin="miter" stroke-linecap="square" stroke-miterlimit="2"/><mask id="_mask_v5dj7FSyEJCYmF6Q5xfkjBM7P2O5HQe4"><rect x="282.273" y="24" width="16" height="16" fill="white" stroke="none"/></mask><rect x="282.273" y="24" width="16" height="16" transform="matrix(1,0,0,1,0,0)" fill="none"/><rect x="282.273" y="24" width="16" height="16" transform="matrix(1,0,0,1,0,0)" fill="none" mask="url(#_mask_v5dj7FSyEJCYmF6Q5xfkjBM7P2O5HQe4)" vector-effect="non-scaling-stroke" stroke-width="4" stroke="rgb(0,0,0)" stroke-linejoin="miter" stroke-linecap="square" stroke-miterlimit="2"/><mask id="_mask_BWqWJ78FkMXPZwIaU4OnkxbOPgVgSK71"><rect x="299.727" y="24" width="16" height="16" fill="white" stroke="none"/></mask><rect x="299.727" y="24" width="16" height="16" transform="matrix(1,0,0,1,0,0)" fill="none"/><rect x="299.727" y="24" width="16" height="16" transform="matrix(1,0,0,1,0,0)" fill="none" mask="url(#_mask_BWqWJ78FkMXPZwIaU4OnkxbOPgVgSK71)" vector-effect="non-scaling-stroke" stroke-width="4" stroke="rgb(0,0,0)" stroke-linejoin="miter" stroke-linecap="square" stroke-miterlimit="2"/><mask id="_mask_qvLOoJPqgu70szFq42Qlir6jvJCi5KjZ"><rect x="317.182" y="24" width="16" height="16" fill="white" stroke="none"/></mask><rect x="317.182" y="24" width="16" height="16" transform="matrix(1,0,0,1,0,0)" fill="none"/><rect x="317.182" y="24" width="16" height="16" transform="matrix(1,0,0,1,0,0)" fill="none" mask="url(#_mask_qvLOoJPqgu70szFq42Qlir6jvJCi5KjZ)" vector-effect="non-scaling-stroke" stroke-width="4" stroke="rgb(0,0,0)" stroke-linejoin="miter" stroke-linecap="square" stroke-miterlimit="2"/><mask id="_mask_Y5yyph3AF8E7tTQirUddT53AzR6Smi9K"><rect x="334.636" y="24" width="16" height="16" fill="white" stroke="none"/></mask><rect x="334.636" y="24" width="16" height="16" transform="matrix(1,0,0,1,0,0)" fill="none"/><rect x="334.636" y="24" width="16" height="16" transform="matrix(1,0,0,1,0,0)" fill="none" mask="url(#_mask_Y5yyph3AF8E7tTQirUddT53AzR6Smi9K)" vector-effect="non-scaling-stroke" stroke-width="4" stroke="rgb(0,0,0)" stroke-linejoin="miter" stroke-linecap="square" stroke-miterlimit="2"/><mask id="_mask_MQ8J3zn22dseOIEkUXLDzSvmelKUZnXt"><rect x="38" y="46" width="16" height="16" fill="white" stroke="none"/></mask><rect x="38" y="46" width="16" height="16" transform="matrix(1,0,0,1,0,0)" fill="none"/><rect x="38" y="46" width="16" height="16" transform="matrix(1,0,0,1,0,0)" fill="none" mask="url(#_mask_MQ8J3zn22dseOIEkUXLDzSvmelKUZnXt)" vector-effect="non-scaling-stroke" stroke-width="4" stroke="rgb(65,115,255)" stroke-linejoin="miter" stroke-linecap="square" stroke-miterlimit="2"/><mask id="_mask_DzDPy7fqhPtnLSk6bZtaMAndwKplHGLS"><rect x="55.455" y="46" width="16" height="16" fill="white" stroke="none"/></mask><rect x="55.455" y="46" width="16" height="16" transform="matrix(1,0,0,1,0,0)" fill="none"/><rect x="55.455" y="46" width="16" height="16" transform="matrix(1,0,0,1,0,0)" fill="none" mask="url(#_mask_DzDPy7fqhPtnLSk6bZtaMAndwKplHGLS)" vector-effect="non-scaling-stroke" stroke-width="4" stroke="rgb(0,0,0)" stroke-linejoin="miter" stroke-linecap="square" stroke-miterlimit="2"/><mask id="_mask_yTLXBmv6PfF2w9YtYz8E3t3BzB6OZVmD"><rect x="72.909" y="46" width="16" height="16" fill="white" stroke="none"/></mask><rect x="72.909" y="46" width="16" height="16" transform="matrix(1,0,0,1,0,0)" fill="none"/><rect x="72.909" y="46" width="16" height="16" transform="matrix(1,0,0,1,0,0)" fill="none" mask="url(#_mask_yTLXBmv6PfF2w9YtYz8E3t3BzB6OZVmD)" vector-effect="non-scaling-stroke" stroke-width="4" stroke="rgb(0,0,0)" stroke-linejoin="miter" stroke-linecap="square" stroke-miterlimit="2"/><mask id="_mask_Du1NctW1a3xOzw9nk3S1bEg4O5CjNOA3"><rect x="90.364" y="46" width="16" height="16" fill="white" stroke="none"/></mask><rect x="90.364" y="46" width="16" height="16" transform="matrix(1,0,0,1,0,0)" fill="none"/><rect x="90.364" y="46" width="16" height="16" transform="matrix(1,0,0,1,0,0)" fill="none" mask="url(#_mask_Du1NctW1a3xOzw9nk3S1bEg4O5CjNOA3)" vector-effect="non-scaling-stroke" stroke-width="4" stroke="rgb(0,0,0)" stroke-linejoin="miter" stroke-linecap="square" stroke-miterlimit="2"/><mask id="_mask_nUUOAXEyETxY99nExDiKJ3p0b5ZcdXxM"><rect x="87.9" y="79" width="16" height="16" fill="white" stroke="none"/></mask><rect x="87.9" y="79" width="16" height="16" transform="matrix(1,0,0,1,0,0)" fill="none"/><rect x="87.9" y="79" width="16" height="16" transform="matrix(1,0,0,1,0,0)" fill="none" mask="url(#_mask_nUUOAXEyETxY99nExDiKJ3p0b5ZcdXxM)" vector-effect="non-scaling-stroke" stroke-width="4" stroke="rgb(255,0,0)" stroke-linejoin="miter" stroke-linecap="square" stroke-miterlimit="2"/><mask id="_mask_nkF6MMrGnhO7lwEQll70asT2AXhnpQFa"><rect x="105.355" y="79" width="16" height="16" fill="white" stroke="none"/></mask><rect x="105.355" y="79" width="16" height="16" transform="matrix(1,0,0,1,0,0)" fill="none"/><rect x="105.355" y="79" width="16" height="16" transform="matrix(1,0,0,1,0,0)" fill="none" mask="url(#_mask_nkF6MMrGnhO7lwEQll70asT2AXhnpQFa)" vector-effect="non-scaling-stroke" stroke-width="4" stroke="rgb(255,0,0)" stroke-linejoin="miter" stroke-linecap="square" stroke-miterlimit="2"/><mask id="_mask_6Hjnh8pLX35QgpIZwt8BHNufGzi0qrth"><rect x="122.809" y="79" width="16" height="16" fill="white" stroke="none"/></mask><rect x="122.809" y="79" width="16" height="16" transform="matrix(1,0,0,1,0,0)" fill="none"/><rect x="122.809" y="79" width="16" height="16" transform="matrix(1,0,0,1,0,0)" fill="none" mask="url(#_mask_6Hjnh8pLX35QgpIZwt8BHNufGzi0qrth)" vector-effect="non-scaling-stroke" stroke-width="4" stroke="rgb(255,0,0)" stroke-linejoin="miter" stroke-linecap="square" stroke-miterlimit="2"/><mask id="_mask_jFCRo0f7znBDIm9XWSGbC4hIovq4utvj"><rect x="140.264" y="79" width="16" height="16" fill="white" stroke="none"/></mask><rect x="140.264" y="79" width="16" height="16" transform="matrix(1,0,0,1,0,0)" fill="none"/><rect x="140.264" y="79" width="16" height="16" transform="matrix(1,0,0,1,0,0)" fill="none" mask="url(#_mask_jFCRo0f7znBDIm9XWSGbC4hIovq4utvj)" vector-effect="non-scaling-stroke" stroke-width="4" stroke="rgb(255,0,0)" stroke-linejoin="miter" stroke-linecap="square" stroke-miterlimit="2"/><mask id="_mask_Brk1vub4al4fcQQVeNhDfi9OOvvwyHA7"><rect x="317.818" y="79" width="16" height="16" fill="white" stroke="none"/></mask><rect x="317.818" y="79" width="16" height="16" transform="matrix(1,0,0,1,0,0)" fill="none"/><rect x="317.818" y="79" width="16" height="16" transform="matrix(1,0,0,1,0,0)" fill="none" mask="url(#_mask_Brk1vub4al4fcQQVeNhDfi9OOvvwyHA7)" vector-effect="non-scaling-stroke" stroke-width="4" stroke="rgb(255,0,0)" stroke-linejoin="miter" stroke-linecap="square" stroke-miterlimit="2"/><mask id="_mask_czIaerhjFVsRPmfKIfSUCA22cbg9hLns"><rect x="335.273" y="79" width="16" height="16" fill="white" stroke="none"/></mask><rect x="335.273" y="79" width="16" height="16" transform="matrix(1,0,0,1,0,0)" fill="none"/><rect x="335.273" y="79" width="16" height="16" transform="matrix(1,0,0,1,0,0)" fill="none" mask="url(#_mask_czIaerhjFVsRPmfKIfSUCA22cbg9hLns)" vector-effect="non-scaling-stroke" stroke-width="4" stroke="rgb(255,0,0)" stroke-linejoin="miter" stroke-linecap="square" stroke-miterlimit="2"/><mask id="_mask_QpAXioLuuWKkqjZ4UUt3mSV4VpFomjrw"><rect x="352.727" y="79" width="16" height="16" fill="white" stroke="none"/></mask><rect x="352.727" y="79" width="16" height="16" transform="matrix(1,0,0,1,0,0)" fill="none"/><rect x="352.727" y="79" width="16" height="16" transform="matrix(1,0,0,1,0,0)" fill="none" mask="url(#_mask_QpAXioLuuWKkqjZ4UUt3mSV4VpFomjrw)" vector-effect="non-scaling-stroke" stroke-width="4" stroke="rgb(255,0,0)" stroke-linejoin="miter" stroke-linecap="square" stroke-miterlimit="2"/><mask id="_mask_rbYmOyvirj3cJlOi3n68JtXTIvrFJuv4"><rect x="370.182" y="79" width="16" height="16" fill="white" stroke="none"/></mask><rect x="370.182" y="79" width="16" height="16" transform="matrix(1,0,0,1,0,0)" fill="none"/><rect x="370.182" y="79" width="16" height="16" transform="matrix(1,0,0,1,0,0)" fill="none" mask="url(#_mask_rbYmOyvirj3cJlOi3n68JtXTIvrFJuv4)" vector-effect="non-scaling-stroke" stroke-width="4" stroke="rgb(255,0,0)" stroke-linejoin="miter" stroke-linecap="square" stroke-miterlimit="2"/><mask id="_mask_yPMxF7nTTO7YjmDkG9iHB7lJNcoSqE06"><rect x="107.818" y="46" width="16" height="16" fill="white" stroke="none"/></mask><rect x="107.818" y="46" width="16" height="16" transform="matrix(1,0,0,1,0,0)" fill="none"/><rect x="107.818" y="46" width="16" height="16" transform="matrix(1,0,0,1,0,0)" fill="none" mask="url(#_mask_yPMxF7nTTO7YjmDkG9iHB7lJNcoSqE06)" vector-effect="non-scaling-stroke" stroke-width="4" stroke="rgb(0,0,0)" stroke-linejoin="miter" stroke-linecap="square" stroke-miterlimit="2"/><mask id="_mask_c9vdf1dYKvbWD7UpCVg6wgsbfoXak9h8"><rect x="125.273" y="46" width="16" height="16" fill="white" stroke="none"/></mask><rect x="125.273" y="46" width="16" height="16" transform="matrix(1,0,0,1,0,0)" fill="none"/><rect x="125.273" y="46" width="16" height="16" transform="matrix(1,0,0,1,0,0)" fill="none" mask="url(#_mask_c9vdf1dYKvbWD7UpCVg6wgsbfoXak9h8)" vector-effect="non-scaling-stroke" stroke-width="4" stroke="rgb(0,0,0)" stroke-linejoin="miter" stroke-linecap="square" stroke-miterlimit="2"/><mask id="_mask_N8uDDpp9vGs2rAe2Dt593EIObR3XyS82"><rect x="142.727" y="46" width="16" height="16" fill="white" stroke="none"/></mask><rect x="142.727" y="46" width="16" height="16" transform="matrix(1,0,0,1,0,0)" fill="none"/><rect x="142.727" y="46" width="16" height="16" transform="matrix(1,0,0,1,0,0)" fill="none" mask="url(#_mask_N8uDDpp9vGs2rAe2Dt593EIObR3XyS82)" vector-effect="non-scaling-stroke" stroke-width="4" stroke="rgb(0,0,0)" stroke-linejoin="miter" stroke-linecap="square" stroke-miterlimit="2"/><mask id="_mask_anDEH3mKSOiV8Etc4fI8Hh4k9if0ewpg"><rect x="160.182" y="46" width="16" height="16" fill="white" stroke="none"/></mask><rect x="160.182" y="46" width="16" height="16" transform="matrix(1,0,0,1,0,0)" fill="none"/><rect x="160.182" y="46" width="16" height="16" transform="matrix(1,0,0,1,0,0)" fill="none" mask="url(#_mask_anDEH3mKSOiV8Etc4fI8Hh4k9if0ewpg)" vector-effect="non-scaling-stroke" stroke-width="4" stroke="rgb(0,0,0)" stroke-linejoin="miter" stroke-linecap="square" stroke-miterlimit="2"/><mask id="_mask_mnOp1gKte2e0q9bWgDgqyG10bokqH9qE"><rect x="177.636" y="46" width="16" height="16" fill="white" stroke="none"/></mask><rect x="177.636" y="46" width="16" height="16" transform="matrix(1,0,0,1,0,0)" fill="none"/><rect x="177.636" y="46" width="16" height="16" transform="matrix(1,0,0,1,0,0)" fill="none" mask="url(#_mask_mnOp1gKte2e0q9bWgDgqyG10bokqH9qE)" vector-effect="non-scaling-stroke" stroke-width="4" stroke="rgb(0,0,0)" stroke-linejoin="miter" stroke-linecap="square" stroke-miterlimit="2"/><mask id="_mask_qvPpawMCWGzHliPskkGzcmtnFhewefZf"><rect x="195.091" y="46" width="16" height="16" fill="white" stroke="none"/></mask><rect x="195.091" y="46" width="16" height="16" transform="matrix(1,0,0,1,0,0)" fill="none"/><rect x="195.091" y="46" width="16" height="16" transform="matrix(1,0,0,1,0,0)" fill="none" mask="url(#_mask_qvPpawMCWGzHliPskkGzcmtnFhewefZf)" vector-effect="non-scaling-stroke" stroke-width="4" stroke="rgb(0,0,0)" stroke-linejoin="miter" stroke-linecap="square" stroke-miterlimit="2"/><mask id="_mask_OanW963RMCLxD7XWmCDPPmDICJNGiHcj"><rect x="212.545" y="46" width="16" height="16" fill="white" stroke="none"/></mask><rect x="212.545" y="46" width="16" height="16" transform="matrix(1,0,0,1,0,0)" fill="none"/><rect x="212.545" y="46" width="16" height="16" transform="matrix(1,0,0,1,0,0)" fill="none" mask="url(#_mask_OanW963RMCLxD7XWmCDPPmDICJNGiHcj)" vector-effect="non-scaling-stroke" stroke-width="4" stroke="rgb(0,0,0)" stroke-linejoin="miter" stroke-linecap="square" stroke-miterlimit="2"/><mask id="_mask_0mvPiRciQoghGXK5JZtekpQ9dIyX5jVv"><rect x="230" y="46" width="16" height="16" fill="white" stroke="none"/></mask><rect x="230" y="46" width="16" height="16" transform="matrix(1,0,0,1,0,0)" fill="none"/><rect x="230" y="46" width="16" height="16" transform="matrix(1,0,0,1,0,0)" fill="none" mask="url(#_mask_0mvPiRciQoghGXK5JZtekpQ9dIyX5jVv)" vector-effect="non-scaling-stroke" stroke-width="4" stroke="rgb(0,0,0)" stroke-linejoin="miter" stroke-linecap="square" stroke-miterlimit="2"/><mask id="_mask_xbtanqWxNcSsobuxyUt1B1p8NDJ97khk"><rect x="247.455" y="46" width="16" height="16" fill="white" stroke="none"/></mask><rect x="247.455" y="46" width="16" height="16" transform="matrix(1,0,0,1,0,0)" fill="none"/><rect x="247.455" y="46" width="16" height="16" transform="matrix(1,0,0,1,0,0)" fill="none" mask="url(#_mask_xbtanqWxNcSsobuxyUt1B1p8NDJ97khk)" vector-effect="non-scaling-stroke" stroke-width="4" stroke="rgb(0,0,0)" stroke-linejoin="miter" stroke-linecap="square" stroke-miterlimit="2"/><mask id="_mask_lD8xuPrjjRMMIMF8X8HnKX8TqCXpjwOx"><rect x="264.909" y="46" width="16" height="16" fill="white" stroke="none"/></mask><rect x="264.909" y="46" width="16" height="16" transform="matrix(1,0,0,1,0,0)" fill="none"/><rect x="264.909" y="46" width="16" height="16" transform="matrix(1,0,0,1,0,0)" fill="none" mask="url(#_mask_lD8xuPrjjRMMIMF8X8HnKX8TqCXpjwOx)" vector-effect="non-scaling-stroke" stroke-width="4" stroke="rgb(0,0,0)" stroke-linejoin="miter" stroke-linecap="square" stroke-miterlimit="2"/><mask id="_mask_AHcFbCgjCY3dvk0XM6Ch6vUBuXZAA7FA"><rect x="282.364" y="46" width="16" height="16" fill="white" stroke="none"/></mask><rect x="282.364" y="46" width="16" height="16" transform="matrix(1,0,0,1,0,0)" fill="none"/><rect x="282.364" y="46" width="16" height="16" transform="matrix(1,0,0,1,0,0)" fill="none" mask="url(#_mask_AHcFbCgjCY3dvk0XM6Ch6vUBuXZAA7FA)" vector-effect="non-scaling-stroke" stroke-width="4" stroke="rgb(0,0,0)" stroke-linejoin="miter" stroke-linecap="square" stroke-miterlimit="2"/><mask id="_mask_YpXwaq0Ce2i0PIDOm4cv3EA8t1HYDdSY"><rect x="299.818" y="46" width="16" height="16" fill="white" stroke="none"/></mask><rect x="299.818" y="46" width="16" height="16" transform="matrix(1,0,0,1,0,0)" fill="none"/><rect x="299.818" y="46" width="16" height="16" transform="matrix(1,0,0,1,0,0)" fill="none" mask="url(#_mask_YpXwaq0Ce2i0PIDOm4cv3EA8t1HYDdSY)" vector-effect="non-scaling-stroke" stroke-width="4" stroke="rgb(0,0,0)" stroke-linejoin="miter" stroke-linecap="square" stroke-miterlimit="2"/><mask id="_mask_liR3oAkpP3oz6gVCtEuFaXjZFlCf9EzY"><rect x="317.273" y="46" width="16" height="16" fill="white" stroke="none"/></mask><rect x="317.273" y="46" width="16" height="16" transform="matrix(1,0,0,1,0,0)" fill="none"/><rect x="317.273" y="46" width="16" height="16" transform="matrix(1,0,0,1,0,0)" fill="none" mask="url(#_mask_liR3oAkpP3oz6gVCtEuFaXjZFlCf9EzY)" vector-effect="non-scaling-stroke" stroke-width="4" stroke="rgb(0,0,0)" stroke-linejoin="miter" stroke-linecap="square" stroke-miterlimit="2"/><mask id="_mask_90VYrY3gBogIErGDrzGtlw3Z8D43pgBP"><rect x="334.727" y="46" width="16" height="16" fill="white" stroke="none"/></mask><rect x="334.727" y="46" width="16" height="16" transform="matrix(1,0,0,1,0,0)" fill="none"/><rect x="334.727" y="46" width="16" height="16" transform="matrix(1,0,0,1,0,0)" fill="none" mask="url(#_mask_90VYrY3gBogIErGDrzGtlw3Z8D43pgBP)" vector-effect="non-scaling-stroke" stroke-width="4" stroke="rgb(0,0,0)" stroke-linejoin="miter" stroke-linecap="square" stroke-miterlimit="2"/><mask id="_mask_j0Wu1xXW0J5narusMznsgENrnpZj7vsE"><rect x="352.182" y="46" width="16" height="16" fill="white" stroke="none"/></mask><rect x="352.182" y="46" width="16" height="16" transform="matrix(1,0,0,1,0,0)" fill="none"/><rect x="352.182" y="46" width="16" height="16" transform="matrix(1,0,0,1,0,0)" fill="none" mask="url(#_mask_j0Wu1xXW0J5narusMznsgENrnpZj7vsE)" vector-effect="non-scaling-stroke" stroke-width="4" stroke="rgb(0,0,0)" stroke-linejoin="miter" stroke-linecap="square" stroke-miterlimit="2"/><mask id="_mask_K2HBiHvBfnQiEgajOAs73gerKJfKjP7S"><rect x="369.636" y="46" width="16" height="16" fill="white" stroke="none"/></mask><rect x="369.636" y="46" width="16" height="16" transform="matrix(1,0,0,1,0,0)" fill="none"/><rect x="369.636" y="46" width="16" height="16" transform="matrix(1,0,0,1,0,0)" fill="none" mask="url(#_mask_K2HBiHvBfnQiEgajOAs73gerKJfKjP7S)" vector-effect="non-scaling-stroke" stroke-width="4" stroke="rgb(0,0,0)" stroke-linejoin="miter" stroke-linecap="square" stroke-miterlimit="2"/><line x1="8" y1="54" x2="31" y2="54" vector-effect="non-scaling-stroke" stroke-width="2" stroke="rgb(0,0,0)" stroke-linejoin="round" stroke-linecap="round" stroke-miterlimit="3"/><line x1="31" y1="54" x2="26" y2="49" vector-effect="non-scaling-stroke" stroke-width="2" stroke="rgb(0,0,0)" stroke-linejoin="round" stroke-linecap="round" stroke-miterlimit="3"/><line x1="31" y1="54" x2="26" y2="59" vector-effect="non-scaling-stroke" stroke-width="2" stroke="rgb(0,0,0)" stroke-linejoin="round" stroke-linecap="round" stroke-miterlimit="3"/><line x1="359" y1="32" x2="382" y2="32" vector-effect="non-scaling-stroke" stroke-width="2" stroke="rgb(0,0,0)" stroke-linejoin="round" stroke-linecap="round" stroke-miterlimit="3"/><line x1="382" y1="32" x2="377" y2="27" vector-effect="non-scaling-stroke" stroke-width="2" stroke="rgb(0,0,0)" stroke-linejoin="round" stroke-linecap="round" stroke-miterlimit="3"/><line x1="382" y1="32" x2="377" y2="37" vector-effect="non-scaling-stroke" stroke-width="2" stroke="rgb(0,0,0)" stroke-linejoin="round" stroke-linecap="round" stroke-miterlimit="3"/><g clip-path="url(#_clipPath_f3WxxinvGbmjVMDKghRubYKQNf311zvf)"><text transform="matrix(1,0,0,1,3,92.431)" style="font-family:'Open Sans';font-weight:400;font-size:14px;font-style:normal;fill:#ff0000;stroke:none;">Zielfelder A</text></g><defs><clipPath id="_clipPath_f3WxxinvGbmjVMDKghRubYKQNf311zvf"><rect x="0" y="0" width="76" height="19.065" transform="matrix(1,0,0,1,3,77.467)"/></clipPath></defs><g clip-path="url(#_clipPath_1pSEgNz6kSZ4Zb2zmLq51Jjzy1WOs0G0)"><text transform="matrix(1,0,0,1,3,16.761)" style="font-family:'Open Sans';font-weight:700;font-size:12px;font-style:normal;fill:#000000;stroke:none;">Spielfeld</text></g><defs><clipPath id="_clipPath_1pSEgNz6kSZ4Zb2zmLq51Jjzy1WOs0G0"><rect x="0" y="0" width="54" height="16.342" transform="matrix(1,0,0,1,3,3.935)"/></clipPath></defs><g clip-path="url(#_clipPath_s3R4YSfkceVmZc1AVnW6OUcljeEPsXPk)"><text transform="matrix(1,0,0,1,231,92.431)" style="font-family:'Open Sans';font-weight:400;font-size:14px;font-style:normal;fill:#ff0000;stroke:none;">Zielfelder B</text></g><defs><clipPath id="_clipPath_s3R4YSfkceVmZc1AVnW6OUcljeEPsXPk"><rect x="0" y="0" width="76" height="19.065" transform="matrix(1,0,0,1,231,77.467)"/></clipPath></defs><g clip-path="url(#_clipPath_6jgv1c1wDuO5NJuWQ2U4wIQ0pv4cl1nr)"><text transform="matrix(1,0,0,1,273.636,16.761)" style="font-family:'Open Sans';font-weight:400;font-size:12px;font-style:normal;fill:#4a86e8;stroke:none;">A-Felder der Spieler</text></g><defs><clipPath id="_clipPath_6jgv1c1wDuO5NJuWQ2U4wIQ0pv4cl1nr"><rect x="0" y="0" width="112" height="16.342" transform="matrix(1,0,0,1,273.636,3.935)"/></clipPath></defs></g></svg>